# xmcd
#
# Track frame offsets: 
#        150
#        11166
#        24472
#        38176
#        51021
#        64586
#        77640
#        90749
#        104125
#        117353
#        128792
#        144055
#        156488
#        169452
#        183441
#        199004
#        214095
#        227378
#
# Disc length: 3226 seconds
#
# Revision: 2
# Processed by: cddbd v1.5.2PL0 Copyright (c) Steve Scherf et al.
# Submitted via: ExactAudioCopy v0.95b2
#
DISCID=f50c9812
DTITLE=Ida Cox - The Essential Disc 2
DYEAR=2001
DGENRE=Blues
TTITLE0=Wild Women Don't Have the Blues
TTITLE1=Confidential Blues
TTITLE2=Mean Papa Turn Your Key
TTITLE3=Midnight Hour Blues
TTITLE4=Pink Slip Blues
TTITLE5=Fare Thee Well Poor Gal
TTITLE6=Can't Quit That Man
TTITLE7=Kentucky Man Blues
TTITLE8=Trouble Trouble Blues
TTITLE9=Western Union Blues
TTITLE10=Deep Sea Blues
TTITLE11=Death Letter Blues
TTITLE12=Give Me a Break Blues
TTITLE13=One Hour Mama
TTITLE14=Four Day Creep
TTITLE15=Jail House Blues
TTITLE16=Bone Orchard Blues
TTITLE17=Last Mile Blues
EXTD=
EXTT0=
EXTT1=
EXTT2=
EXTT3=
EXTT4=
EXTT5=
EXTT6=
EXTT7=
EXTT8=
EXTT9=
EXTT10=
EXTT11=
EXTT12=
EXTT13=
EXTT14=
EXTT15=
EXTT16=
EXTT17=
PLAYORDER=
